# xmcd CD database file
#
# Track frame offsets:
#	150
#	21784
#	49806
#	76085
#	96206
#	134759
#	151810
#	184901
#	194925
#	222431
#	249804
#	270635
#	293066
#
# Disc length: 4355 seconds
#
# Revision: 1
# Processed by: cddbd v1.5.2PL0 Copyright (c) Steve Scherf et al.
# Submitted via: CDex 1.51
#
DISCID=bc11010d
DTITLE=Monokel Kraftblues - 40 Jahre Monokel Kraftblues
DYEAR=2016
DGENRE=Blues
TTITLE0=Gahler, Frank - Rettungsboot
TTITLE1=Monokel Kraftblues - Layla
TTITLE2=Mike Seeber Trio/ Nie wie Vater
TTITLE3=Kerth, Jürgen - Komm zurück
TTITLE4=Engerling - Muschellied
TTITLE5=Klaus Renft Combo - Liebeslied
TTITLE6=Standhaft, Tino - Rockin' In A Free World
TTITLE7=Monokel Kraftblues and Gäste - Misirlou
TTITLE8=Monokel Kraftblues and Gäste - Good To Go
TTITLE9=Monokel Kraftblues and Gäste - Got My Mojo Working
TTITLE10=Monokel Kraftblues and Gäste - Maggie's Farm
TTITLE11=Monokel Kraftblues and Gäste - Bye, Bye Lübben City
TTITLE12=Monokel Kraftblues and Gäste - Forever Young
EXTD=YEAR: 2016
EXTT0=
EXTT1=
EXTT2=
EXTT3=
EXTT4=
EXTT5=
EXTT6=
EXTT7=
EXTT8=
EXTT9=
EXTT10=
EXTT11=
EXTT12=
PLAYORDER=
